# Blender v2.92.0 OBJ File: ''
# www.blender.org
mtllib Mesa.mtl
o Cube.001
v -11.053766 5.557682 4.398687
v -9.553766 5.557682 5.898687
v -9.553766 5.557682 4.398687
v -11.053766 5.107682 5.898687
v -9.553766 5.107682 5.898687
v -11.053766 5.557682 5.898687
v -11.053766 5.107682 4.398687
v -9.553766 2.107682 5.898687
v -2.053766 5.557682 5.898687
v -11.053766 5.557682 -3.101312
v -2.053766 5.107682 4.398687
v -2.053766 2.107682 5.898687
v -2.053766 5.107682 5.898687
v -9.553766 5.107682 4.398687
v -2.053766 5.107682 -3.101312
v -2.053766 5.557682 4.398687
v -0.553766 5.557682 5.898687
v -0.553766 5.107682 5.898687
v -0.553766 5.557682 5.898687
v -0.553766 5.557682 4.398687
v -0.553766 5.107682 -3.101312
v -0.553766 5.107682 4.398687
v -0.553766 5.557682 4.398687
v -0.553766 5.107682 4.398687
v -0.553766 5.107682 5.898687
v -0.553766 5.557682 -3.101312
v -2.053766 5.557682 -4.601313
v -2.053766 5.557682 -3.101312
v -2.053766 5.107682 -3.101312
v -11.053766 5.107682 -4.601313
v -11.053766 5.107682 -3.101312
v -9.553766 5.557682 -3.101312
v -9.553766 5.107682 -3.101312
v -11.053766 5.557682 -4.601313
v -9.553766 5.107682 -4.601313
v -11.053766 2.107682 -4.601313
v -9.553766 5.557682 -4.601313
v -0.553766 5.107682 -4.601313
v -2.053766 5.107682 -4.601313
v -0.553766 5.557682 -4.601313
v -0.553766 2.107682 -4.601313
v -9.553766 5.557682 -3.101312
v -9.553766 5.107682 -4.601313
v -9.553766 5.107682 -3.101312
v -9.553766 5.557682 -4.601313
v -2.053766 2.107682 -3.101312
v -0.553766 1.357682 -3.101312
v -0.553766 2.107682 -3.101312
v -2.053766 2.107682 -4.601313
v -0.553766 1.357682 5.898687
v -0.553766 2.107682 5.898687
v -2.053766 2.107682 4.398687
v -0.553766 2.107682 4.398687
v -11.053766 2.107682 5.898687
v -9.553766 1.357682 5.898687
v -9.553766 2.107682 4.398687
v -11.053766 2.107682 4.398687
v -9.553766 2.107682 -3.101312
v -9.553766 1.357682 -4.601313
v -9.553766 2.107682 -4.601313
v -11.053766 2.107682 -3.101312
v -9.553766 5.557682 -3.101312
v -9.553766 5.107682 -3.101312
v -2.053766 5.557682 -3.101312
v -2.053766 1.357682 -3.101312
v -0.553766 1.357682 -4.601313
v -2.053766 1.357682 -4.601313
v -11.053766 1.357682 -3.101312
v -9.553766 1.357682 -3.101312
v -11.053766 1.357682 -4.601313
v -9.553766 1.357682 4.398687
v -11.053766 1.357682 5.898687
v -11.053766 1.357682 4.398687
v -2.053766 1.357682 4.398687
v -2.053766 1.357682 5.898687
v -0.553766 1.357682 4.398687
vt 0.454074 0.389558
vt 0.389558 0.454074
vt 0.389558 0.389558
vt 0.815364 0.776654
vt 0.796009 0.841170
vt 0.796009 0.776654
vt 0.454074 0.841171
vt 0.473429 0.776655
vt 0.473429 0.841171
vt 0.666977 0.776654
vt 0.815364 0.454074
vt 0.454074 0.066977
vt 0.325042 0.841171
vt 0.260526 0.970203
vt 0.260526 0.841171
vt 0.454074 0.325041
vt 0.776655 0.002461
vt 0.776655 0.325041
vt 0.776655 0.389557
vt 0.454074 0.389557
vt 0.066977 0.389558
vt 0.363751 0.454074
vt 0.363751 0.454074
vt 0.363751 0.454074
vt 0.796009 0.454074
vt 0.815364 0.389558
vt 0.066977 0.454074
vt 0.002461 0.389558
vt 0.815364 0.712138
vt 0.879880 0.389558
vt 0.879880 0.712138
vt 0.344396 0.841170
vt 0.325042 0.905686
vt 0.325042 0.841170
vt 0.363751 0.454074
vt 0.363751 0.454074
vt 0.363751 0.454074
vt 0.363751 0.454074
vt 0.363751 0.454074
vt 0.002461 0.066977
vt 0.066977 0.002461
vt 0.066977 0.066977
vt 0.163751 0.841171
vt 0.183106 0.518590
vt 0.183106 0.841171
vt 0.428267 0.776654
vt 0.447622 0.454074
vt 0.447622 0.776654
vt 0.454074 0.454074
vt 0.473429 0.389558
vt 0.473429 0.454074
vt 0.344396 0.841171
vt 0.363751 0.518590
vt 0.363751 0.841171
vt 0.454074 0.776655
vt 0.879880 0.712138
vt 0.944396 0.389557
vt 0.944396 0.712138
vt 0.815364 0.712138
vt 0.879880 0.731493
vt 0.815364 0.731493
vt 0.815364 0.860525
vt 0.389558 0.066977
vt 0.454074 0.002461
vt 0.344396 0.518590
vt 0.363751 0.454074
vt 0.957300 0.325041
vt 0.937945 0.389557
vt 0.937945 0.325041
vt 0.163751 0.518590
vt 0.183106 0.454074
vt 0.034719 0.454074
vt 0.163751 0.454074
vt 0.389558 0.066977
vt 0.428267 0.841171
vt 0.447622 0.776655
vt 0.447622 0.841171
vt 0.957300 0.002461
vt 0.983106 0.389558
vt 0.963751 0.712138
vt 0.963751 0.389558
vt 0.363751 0.776654
vt 0.428267 0.454073
vt 0.428267 0.776654
vt 0.066977 0.970203
vt 0.002461 1.002461
vt 0.002461 0.970203
vt 0.808912 0.325041
vt 0.066977 0.841171
vt 0.002461 0.841171
vt 0.363751 0.905687
vt 0.666977 0.454074
vt 0.634719 0.389558
vt 0.666977 0.389558
vt 0.944396 0.712138
vt 0.879880 0.841170
vt 0.879880 0.712138
vt 0.796009 0.389558
vt 0.066977 1.002461
vt 0.131493 0.873428
vt 0.131493 1.002461
vt 0.666977 0.841170
vt 0.634719 0.776654
vt 0.602461 0.841171
vt 0.131493 1.002461
vt 0.196009 0.873428
vt 0.196009 1.002461
vt 0.260525 0.841171
vt 0.196009 0.970203
vt 0.196009 0.841171
vt 0.215364 0.518590
vt 0.183106 0.454074
vt 0.215364 0.454074
vt 0.602461 0.454074
vt 0.518589 0.841171
vt 0.454073 0.970203
vt 0.454073 0.841171
vt 0.344396 0.454074
vt 0.996009 0.002461
vt 0.976654 0.325041
vt 0.976654 0.002461
vt 0.944396 0.712138
vt 0.963751 0.389557
vt 0.963751 0.712138
vt 0.389558 0.066977
vt 0.957300 0.325041
vt 0.976654 0.002461
vt 0.976654 0.325041
vt 0.518590 0.905687
vt 0.583106 0.841171
vt 0.583106 0.905687
vt 0.428267 0.905687
vt 0.363751 0.937945
vt 0.808912 0.389557
vt 0.776654 0.325041
vt 0.034719 0.518590
vt 0.002461 0.454074
vt 0.583106 0.905687
vt 0.647622 0.841171
vt 0.647622 0.905687
vt 0.879880 0.860525
vt 0.815364 0.892783
vt 0.602461 0.389558
vt 0.634719 0.454074
vt 0.518589 0.970203
vt 0.454073 1.002461
vt 0.712138 0.905687
vt 0.647622 0.841171
vt 0.712138 0.841171
vt 0.602461 0.776655
vt 0.634719 0.841171
vt 0.131493 0.873428
vt 0.196009 0.841170
vt 0.260525 0.970203
vt 0.196009 1.002461
vt 0.776654 0.841170
vt 0.712138 0.905686
vt 0.712138 0.841170
vt 0.066977 0.873428
vt 0.131493 0.841170
vt 0.944396 0.841170
vt 0.879880 0.873428
vt 0.325042 0.970203
vt 0.260526 1.002461
vt 0.454074 0.454074
vt 0.815364 0.841170
vt 0.454074 0.002461
vt 0.002461 0.454074
vt 0.815364 0.389558
vt 0.344396 0.905686
vt 0.002461 0.002461
vt 0.428267 0.454074
vt 0.454074 0.389558
vt 0.879880 0.389557
vt 0.879880 0.712138
vt 0.389558 0.002461
vt 0.957300 0.389557
vt 0.389558 0.002461
vt 0.428267 0.776655
vt 0.937945 0.002461
vt 0.983106 0.712138
vt 0.363751 0.454073
vt 0.066977 1.002461
vt 0.634719 0.454074
vt 0.183106 0.518590
vt 0.996009 0.325041
vt 0.944396 0.389557
vt 0.066977 0.066977
vt 0.957300 0.002461
vt 0.518590 0.841171
vt 0.428267 0.937945
vt 0.776654 0.389557
vt 0.002461 0.518590
vt 0.583106 0.841171
vt 0.879880 0.892783
vt 0.634719 0.389558
vt 0.518589 1.002461
vt 0.647622 0.905687
vt 0.634719 0.776655
vt 0.131493 0.841170
vt 0.260525 1.002461
vt 0.776654 0.905686
vt 0.066977 0.841170
vt 0.944396 0.873428
vt 0.325042 1.002461
vn 0.0000 1.0000 0.0000
vn 0.0000 -0.0000 1.0000
vn -1.0000 0.0000 0.0000
vn 0.0000 -1.0000 -0.0000
vn 0.0000 0.0000 0.0000
vn 1.0000 -0.0000 0.0000
vn 0.0000 0.0000 -1.0000
usemtl Default_OBJ
s 1
f 1/1/1 2/2/1 3/3/1
f 2/4/2 4/5/2 5/6/2
f 6/7/3 7/8/3 4/9/3
f 4/5/2 8/10/2 5/6/2
f 5/6/2 9/11/2 2/4/2
f 3/3/1 10/12/1 1/1/1
f 11/13/3 12/14/3 13/15/3
f 14/16/4 15/17/4 11/18/4
f 14/16/4 13/19/4 5/20/4
f 2/2/1 16/21/1 3/3/1
f 17/22/5 18/23/5 19/24/5
f 13/25/2 17/26/5 9/11/2
f 9/27/1 20/28/1 16/21/1
f 11/29/4 21/30/4 22/31/4
f 23/32/6 18/33/6 24/34/6
f 20/35/5 19/24/5 23/36/5
f 22/37/5 23/36/5 24/38/5
f 25/39/5 24/38/5 18/23/5
f 26/40/1 27/41/1 28/42/1
f 22/43/6 26/44/6 20/45/6
f 20/28/1 28/42/1 16/21/1
f 16/46/3 29/47/3 11/48/3
f 10/49/3 30/50/3 31/51/3
f 14/52/6 32/53/6 3/54/6
f 1/55/3 31/51/3 7/8/3
f 7/56/4 33/57/4 14/58/4
f 34/59/7 35/60/7 30/61/7
f 35/60/7 36/62/7 30/61/7
f 32/63/1 34/64/1 10/12/1
f 33/65/6 37/66/6 32/53/6
f 27/67/7 38/68/7 39/69/7
f 21/70/6 40/71/6 26/44/6
f 21/70/6 41/72/6 38/73/6
f 27/41/1 42/74/1 28/42/1
f 42/75/3 43/76/3 44/77/3
f 39/69/7 45/78/7 27/67/7
f 28/79/2 44/80/2 29/81/2
f 29/82/4 43/83/4 39/84/4
f 46/85/2 47/86/2 48/87/2
f 38/68/7 49/88/7 39/69/7
f 29/89/2 48/87/2 21/90/2
f 39/84/3 46/91/3 29/82/3
f 12/92/2 50/93/2 51/94/2
f 22/95/7 52/96/7 11/97/7
f 13/25/2 51/94/2 25/98/5
f 25/99/6 53/100/6 22/101/6
f 54/102/2 55/103/2 8/10/2
f 7/8/3 54/104/3 4/9/3
f 5/105/6 56/106/6 14/107/6
f 14/108/7 57/109/7 7/110/7
f 58/111/6 59/112/6 60/113/6
f 30/50/3 61/114/3 31/51/3
f 31/115/2 58/116/2 33/117/2
f 33/65/6 60/113/6 35/118/6
f 62/119/7 15/120/7 63/121/7
f 3/122/3 63/123/3 14/124/3
f 16/21/1 62/125/1 3/3/1
f 11/126/6 64/127/6 16/128/6
f 65/129/4 66/130/4 47/131/4
f 49/132/3 65/133/3 46/91/3
f 41/134/7 67/135/7 49/88/7
f 48/136/6 66/137/6 41/72/6
f 68/138/4 59/139/4 69/140/4
f 60/141/7 70/142/7 36/62/7
f 36/143/3 68/144/3 61/114/3
f 61/145/2 69/146/2 58/116/2
f 71/147/4 72/148/4 73/149/4
f 57/150/3 72/151/3 54/104/3
f 8/152/6 71/153/6 56/106/6
f 56/154/7 73/155/7 57/109/7
f 74/156/4 50/157/4 75/158/4
f 51/159/6 76/160/6 53/100/6
f 53/161/7 74/162/7 52/96/7
f 52/163/3 75/164/3 12/14/3
f 1/1/1 6/165/1 2/2/1
f 2/4/2 6/166/2 4/5/2
f 6/7/3 1/55/3 7/8/3
f 4/5/2 54/102/2 8/10/2
f 5/6/2 13/25/2 9/11/2
f 3/3/1 32/63/1 10/12/1
f 11/13/3 52/163/3 12/14/3
f 14/16/4 63/167/4 15/17/4
f 14/16/4 11/18/4 13/19/4
f 2/2/1 9/27/1 16/21/1
f 17/22/5 25/39/5 18/23/5
f 13/25/2 25/98/5 17/26/5
f 9/27/1 17/168/1 20/28/1
f 11/29/4 29/169/4 21/30/4
f 23/32/6 19/170/6 18/33/6
f 20/35/5 17/22/5 19/24/5
f 22/37/5 20/35/5 23/36/5
f 25/39/5 22/37/5 24/38/5
f 26/40/1 40/171/1 27/41/1
f 22/43/6 21/70/6 26/44/6
f 20/28/1 26/40/1 28/42/1
f 16/46/3 28/172/3 29/47/3
f 10/49/3 34/173/3 30/50/3
f 14/52/6 33/65/6 32/53/6
f 1/55/3 10/49/3 31/51/3
f 7/56/4 31/174/4 33/57/4
f 34/59/7 37/175/7 35/60/7
f 35/60/7 60/141/7 36/62/7
f 32/63/1 37/176/1 34/64/1
f 33/65/6 35/118/6 37/66/6
f 27/67/7 40/177/7 38/68/7
f 21/70/6 38/73/6 40/71/6
f 21/70/6 48/136/6 41/72/6
f 27/41/1 45/178/1 42/74/1
f 42/75/3 45/179/3 43/76/3
f 39/69/7 43/180/7 45/78/7
f 28/79/2 42/181/2 44/80/2
f 29/82/4 44/182/4 43/83/4
f 46/85/2 65/183/2 47/86/2
f 38/68/7 41/134/7 49/88/7
f 29/89/2 46/85/2 48/87/2
f 39/84/3 49/132/3 46/91/3
f 12/92/2 75/184/2 50/93/2
f 22/95/7 53/161/7 52/96/7
f 13/25/2 12/92/2 51/94/2
f 25/99/6 51/159/6 53/100/6
f 54/102/2 72/151/2 55/103/2
f 7/8/3 57/150/3 54/104/3
f 5/105/6 8/152/6 56/106/6
f 14/108/7 56/154/7 57/109/7
f 58/111/6 69/185/6 59/112/6
f 30/50/3 36/143/3 61/114/3
f 31/115/2 61/145/2 58/116/2
f 33/65/6 58/111/6 60/113/6
f 62/119/7 64/186/7 15/120/7
f 3/122/3 62/187/3 63/123/3
f 16/21/1 64/188/1 62/125/1
f 11/126/6 15/189/6 64/127/6
f 65/129/4 67/190/4 66/130/4
f 49/132/3 67/191/3 65/133/3
f 41/134/7 66/192/7 67/135/7
f 48/136/6 47/193/6 66/137/6
f 68/138/4 70/194/4 59/139/4
f 60/141/7 59/195/7 70/142/7
f 36/143/3 70/196/3 68/144/3
f 61/145/2 68/197/2 69/146/2
f 71/147/4 55/198/4 72/148/4
f 57/150/3 73/199/3 72/151/3
f 8/152/6 55/200/6 71/153/6
f 56/154/7 71/201/7 73/155/7
f 74/156/4 76/202/4 50/157/4
f 51/159/6 50/203/6 76/160/6
f 53/161/7 76/204/7 74/162/7
f 52/163/3 74/205/3 75/164/3
